<svg id="Layer_1" data-name="Layer 1" xmlns="http://www.w3.org/2000/svg" viewBox="0 0 1190.55 841.89"><defs><style>.cls-1{fill:#fff;stroke:#231f20;stroke-miterlimit:10;}</style></defs><title>NplusJ</title><rect class="cls-1" x="84.65" y="33.88" width="1105.9" height="774.13"/><path d="M214.73,576.84c-8.61,1.82-10.87-5.23-10.94-11.06-.08-7.39,6.22-22.62,8.77-29.69,14-39,38.68-68.53,67.48-94.3a236.8,236.8,0,0,1,31.4-20.45c15.05-7.76,66.32-31.35,87.64-42.76,8.24-4.12,14.22-6.93,16.34-8-.56-13.64-.47-14-.75-23.73-1-34.85,2.15-70.28,4.33-81.22,2.87-14.43,3.55-23.74,6.92-38.08,3.81-10.93,11.26-19.32,16.27-24.12,9.75-9.38,28.83-8.69,40.06-1.48,19.49,12.5,21.07,32.57,23.88,52,1.53,10.55,1.88,21.92-.46,32.19-2.4,10.53-7.79,20.75-13.61,30-6,9.5-14.57,17.34-21,26.63-2,2.88-.73,8.13-.57,12.27.62,16.26,1.39,32.51,2.19,50.47,36.9-53.66,72.79-97.09,73.65-97.9,8.25-9.25,15.59-17.83,23.31-26.05q12-12.78,24.61-25c4.49-4.32,10.43-8.84,16.56-10.13,6.5-1.36,24.89,5.63,34.27,16.82,10,11.94,13.81,23.42,17.13,37.21,4.9,20.43,8.07,34.3,10.79,64.4.48,2.4,2.08,27.71,2.6,36.4.47,8,2.1,47.8,3.17,59.72.45,5,.28,10.08.89,15.06,2.19,18,4.33,36,7,53.91,6.54,23.68,15.46,29,15.42,34,0,1.14-8.54,3.4-9.27,3.42-16.15.42-29.31-7.32-42.8-17.47-14.61-11-28.08-33.18-31.32-64.56-1.1-16.44-.14-33,0-49.53.09-9.58.22-19.15.44-28.72.27-11.45.67-22.89,1-34.34.34-13.1.28-25.7-.19-38.77-.69-19.06-1.32-38.6-2.79-57.62-.34-4.52.22-12.39-3.15-15.31-2.8-2.43-9.71,1.88-11.18,3.22-11.77,10.71-19.73,20.23-31,31.49-7.57,7.58-15,15.35-21.89,23.53s-12.87,16.82-19.29,25.24c-6,7.89-12.46,15.47-18,23.68C507,376.7,492.64,399.71,491,402.52c-2.14,3.68-9.08,13.63-15.65,26.92,1.17,19.43,4.45,47.6,4.94,55.3,1.05,16.61,2.44,33.2,3.63,49.8.27,3.74.23,7.49.41,11.24.52,11.15,1.1,22.31,1.62,33.46.59,12.72,4,45.6,4.09,49.34.07,2.77-1.29,8.92-22.87,15.38-5.34,1.6-29.37,2-34.78-11q-4.15-53.22-8.32-106.63c-.6.11-2.21-26.56-1.94-26.58l-3.51-65.44c-.27,0-.13-3.82-.25-5.74-.45-7-1.2-14-1.65-21.06-.31-4.89-.34-9.81-.47-14.71-.1-3.6-.56-10-.56-10s-7.92,3.4-10.9,4.82c-12,5.76-46,22.35-52.93,25.48-6.72,3-17.05,8.21-23.49,11.68-13.52,7.28-27.29,14.47-39.55,23.59a289.66,289.66,0,0,0-30.89,26.16s-13,15.12-16.43,21.17c-3.68,6.43-13.64,21.44-20.8,44.87-2.83,7.58-2.9,16.18-4.18,24.34C216.29,566.45,217.13,576.33,214.73,576.84ZM477.66,318.75c5.86-7.73,8-12.33,11.18-17.4,2.53-4,10-17.26,9.94-32,0-10.3-2-24.22-3.77-35.44-5.09-22-14.36-27.75-29.43-25.21-8.46,4.22.12,79.67,1.62,121.86Z"/><path d="M882.72,340.21c.2,5,.64,10,.8,15,.58,18.34,1.78,36.66,2.3,55,.3,10.62.9,19.15,1.09,29.78.19,10.94.42,24-.1,34.91-.59,12.13-.3,19.05-1,31.18-.36,6.16-1.31,14.27-1.7,20.42-.33,5.14-8.24,61.2-23.84,93.89-.85,1.78-5.6,10.14-6.63,11.57-8.86,15.76-16.45,26.81-31.82,43.14a139.11,139.11,0,0,1-50.66,30.27c-12.62,4.72-24.88,6.39-29.35,7.31-4.26.62-11.14,1.95-13.41,2-.9,0-12.09,1.52-22.6,2.24-3.69,0-10.55.48-13,.31-3.41-.25-6.83-.38-10.25-.55-4.55-.23-10.9-.65-13.76-1.18-3.2-.74-17.46-2.7-22.38-3.95-11.79-3-30.15-9.43-37.37-12-8.26-2.93-29.35-14.74-35.31-20-20.52-18.24-28.84-25-33.13-30.72-4-5.32.47-8.71,1.24-9.58,2.91-3.29,6.67.09,9.26,1.24,1.68.75,8.37,12.34,8.65,13,6.34,14.15,22.5,22.11,30.51,27.36A231,231,0,0,0,617,691.58c21.62,7.34,34,7.23,78.73,7.95,0-.26,12.24.58,43.14-6.56,17.56-4.05,26.42-9.08,30.89-12.06,3.4-2.75,15.87-12.56,15.56-12.74,3.2-2.8,10-9.77,10.16-9.71a95.29,95.29,0,0,0,8.38-9.36c1.88-2.32,4.21-6.26,5.72-8.6,1.14-2.18,8.47-12.8,12-22.64a146.8,146.8,0,0,0,6.68-14c2.94-6.61,4.24-14.09,6.09-21.24,2.73-10.57,5.3-21.19,8-31.78.15-.57.64-1.06.72-1.63,1.91-14.15,4.45-28.26,5.48-42.49,1.1-15.2.83-30.51,1-45.78.24-18.27.78-36.56.4-54.81-.65-31.85-2.72-63.68-2.6-95.51.06-18.86,2.36-37.85,5.19-56.51,1.91-12.66,17.3-17.79,26.18-9.65a12.21,12.21,0,0,1,3.26,7.93"/><path d="M718.77,326.07c11.54,2.33,16.49,7.59,25.34,15,3.07,2.59,7.8,7.58,9.09,8.24.46-1.31.83-6.54,1.13-7.87,4-17.79,15-31.06,30.83-40.3,7.92-4.63,22.71,4.92,26.92,12.77,10.27,19.13-6.82,43.95-9,49.38-5.13,9.68-6.76,13.54-10.88,22.1-3.64,7.58-8.2,19-12.54,26.27-5,8.38-9.15,17.29-14.93,25.12-3.12,4.23-9.43,9.82-13.29,9.19-5.51-.9-8.26-7.31-11.87-12.09-7.78-11.82-7.5-11.62-14.09-28.17-4.22-9.23-5.91-14.91-8.89-23.05-.48-3.33-8.23-15.46-13.32-32.61C699.33,336.75,705.75,323.45,718.77,326.07Zm6.16,19.81c-5.28,8.59,4.05,19.78,6.85,28.72,3.32,10.65,8.5,20,11.92,30.58,1.78,5.53,5.75,15.23,8.11,20.59,3.68-2.87,7.43-9.55,9.66-13.22,6-9.87,11-20.3,16.09-30.62,5.53-11.1,10.77-22.33,16.14-33.5,1.15-4.91,4.89-11.49,4.92-15.82,0-5.21.44-11.21-4.84-13.36-2.8-1.14-4.51.67-7.93,3.91-6.56,7.67-16.88,20.31-20.91,29.83-1.57,3.73-7.14,15-9.13,15.12-2.49.16-6.93-4.92-12-10.1C733.5,347.44,727,342.53,724.93,345.88Z"/><path d="M849,145.1c-.44-14.08,7.69-21.51,17.26-18.2,3.94,1.36,8.43,1.09,12,3.18,2.23,1.32,4.42,5.61,4.47,8.63a280.35,280.35,0,0,1-1.24,28.23c-.35,4.26.64,10.84-2.73,12.58s-8.09-2.47-11-5.07-5.63-5.85-8.21-8A59.4,59.4,0,0,1,849,145.1Z"/><path d="M563,141.17l1.29,5.56c-1,0-2.89.34-3,.07a33.5,33.5,0,0,1-.93-5.14Z"/></svg>