<svg id="Layer_1" data-name="Layer 1" xmlns="http://www.w3.org/2000/svg" viewBox="0 0 1190.55 841.89"><defs><style>.cls-1{font-size:48px;fill:#231f20;font-family:Futura-CondensedMedium, Futura;font-weight:500;letter-spacing:0.5em;}.cls-2{fill:none;stroke:#231f20;stroke-miterlimit:10;}</style></defs><title>jen and Nick</title><path d="M853.6,549.68c12.26-8.22,19.88-19.63,27.42-31,1.56-2.35.71-6.2,1.31-9.3,2.79-14.33,15.19-62.54,49.64-36.4,3.43,2.6,5.64,6.51,9,10.4,1.21-2.6,2.17-4.3,2.83-6.11,2.33-6.49,4.81-7.55,11.7-4.87,6.48,2.53,7.26,4.94,5.16,11.19-5.23,15.55-10.18,31.19-15,46.88-.66,2.19.29,4.88.49,7.33,2.22-.43,4.65-.42,6.61-1.38,8.67-4.24,17.2-8.77,26.16-13.38-2.61-5.21-15.64-21.77-.42-44.76,6.79-10.26,19.4-15.72,30.35-10.21,8,4.06,10.38,12,4.86,22-5.16,9.26-11.74,17.72-18.47,27.68,13.55,15.2,24.29,33.68,28.65,56,32.74-5.55,65.63-7.65,98.4-4.92.11,1,.23,2,.34,3a44.12,44.12,0,0,1-6.68,1c-16.7.08-33.42-.55-50.09.2-12.06.55-29.56,3.67-41.61,4.78,0,7.44.54,15.73.4,20.35-.42,13-1.12,13.19-3.54,25.91-3.79,19.85-21.81,37.57-46.06,40.21-17.58,1.91-37-19.24-31.48-39.27,4.57-16.7,15.22-25.27,29.44-34,14-8.54,15.81-8,23.87-12.16.34-18.71-8.52-35-16.78-51.74-8.89,4.74-18.06,9.29-26.86,14.47-5,3-10,4.56-15,1.33-5.43-3.47-10-8-9.88-15.21,0-3.08.53-6.15-.2-10-3.58,3.81-6.26,6.29-10.62,11.51-7.15,8.58-14.66,13.12-25.46,11.47-7-1.06-8.91-7-10.49-13.07-6.51,7.58-12.73,15-19.11,22.21-5.86,6.65-13.46,8.76-22,7.56-8.05-1.14-13.49-6.73-14.8-14.82-2.35-14.55-4-29.11-1.31-43.81a37.49,37.49,0,0,0,.58-4.6c-3.52,0-10-.2-13,.24a30.15,30.15,0,0,1-.56,4.49c-3.14,10.52-7.78,24.32-25.29,39-12.35,10.37-26.84,7.3-32.2-8.22-.82-2.37-1.5-4.79-1.78-5.71-5.36,6.24-10.85,13-16.77,19.34-3,3.23-7,3.84-11.5,2.44-12.41-3.84-17.94-11.4-18.81-25.57-.79-12.86.61-40.75-3.2-39.62-3.71,2.4-7.74,4.36-11,7.23C679,498.34,674,511.39,676.61,527.24c1.23,7.41,2,14.89,2.91,22.35.12,1-.31,2.75-1,3.1-5.19,2.59-10.41,7.28-16.4,4.4-3.13-1.51-6.39-5.81-6.87-9.23-1.59-11.33-2-22.83-2.75-34.27-.22-3.31,0-6.63,0-10.58-7.45,8.29-14.29,16.13-21.43,23.7a46.57,46.57,0,0,1-8.4,6.58c-13.63,9-21.39,1.67-26.18-10.78-1.32-3.42-1.94-9.29-3.36-14.36C587.93,517,583.6,527.4,578.47,535c-3,4.39-6.78,8.93-11.3,11.39-6.3,3.42-13.41,0-16.81-6.53-1.1-2.1-2-4.29-2.94-6.47s-2.44-6.83-3.19-8.69c-6.71,9.09-12.61,14.6-18.79,21.14-7.66,8.1-15.33,15.73-26.64,18.77-7.56,2-17.39-.72-20.12-8.18a152.76,152.76,0,0,1-7.51-29.07c-3.48-22.89-6.49-34-9-68.91-.73-10.46.2-36.31-2.55-36.53-7.89-.47-26,19.45-33.61,41.91-4,11.69-7.72,21.69-14.08,44.29-1.22,3.22-2.75,8.27-2.75,8.27s3.52,15.06,5.12,21.93c3.42,14.62,7.44,29.1,11.68,43.5,1.51,5.13-.22,7.45-4.69,8.89a15.86,15.86,0,0,0-3.22,1.18c-6.41,3.79-11.36,1.91-14.63-4.86-9.88-20.43-13.47-42.47-17.23-64.51-1.72-10.09-4-20.08-6.24-31.24-3.27,3.65-5.77,6.65-8.49,9.43-7,7.16-14.47,13.88-21,21.41-14.13,16.19-16.1,26.12-11.6,47.83-1.36-1.91-3.16-3.64-4-5.75-6.19-15.24-.62-28.61,8.35-40.36,9.84-12.88,21.08-24.71,31.86-36.85,2.52-2.83,3.59-4.3,3.59-4.3s-.76-38.09.77-54.45c.91-9.64,7.23-16.94,17.41-19.51,10.88-2.74,19.74,4,20.37,15.38.79,14.12-3.26,26.51-12.56,37.29-.81.94-3.28,4.39-3.28,4.39s.28,1.71.4,2.89c.93,9.58,4.52,33.05,5.16,33.19,3.19-10.81,6.61-25.9,10.33-36.54,5.31-15.18,7.69-20.29,13.67-29.75,3.56-5.63,9.36-11.78,14.09-16.48,7.32-7.29,16.05-8.8,25.67-5.46,10.18,3.55,16.05,10.66,16.9,21.49,2.09,26.67,3.61,53.4,6.29,80,1.1,10.89,7.48,40.55,11.71,38.83,14.4-9.73,24.61-18.91,33.88-32.49,1-1.44,3.77-6.14,3.77-6.14s.26-6.69.41-9c.81-12.88,1-25.79,1.45-38.69a6.71,6.71,0,0,1,.8-3.32c2.76-4.23,13.36-6.76,17.78-4.29,3.64,2,5.27,4.68,4.17,9.29-4.52,18.82-3,37.84-1,56.79.39,3.7,1.56,10.81,4,10.55,5.39-5.89,7.27-10.17,10.3-15.86,2.67-5,5.58-11,7.8-16.19a80.36,80.36,0,0,0,5-16.65c1.28-6.78,1.39-13.78,2.53-20.59,1.17-7,8.11-8.5,12.74-8.51A89,89,0,0,1,636,462.89c1.38.45,6.34,2.59,4.26,3.6-1.28.62-10.16-2.5-14.39-1.81-2.94.48-7.2,3.85-7.68,6.51a174.9,174.9,0,0,0-2.57,27.72c-.15,6.61.39,20.81,3.06,21.6,14.58-2,22.73-12.75,26.35-16.66,6.41-6.94,7.93-9.59,7.93-9.59s4.73-49.5,8.4-70.73c1.8-10.37,1.85-14.08,11.72-30,4.26-6.86,13.68-10.36,21.86-7.95,6.34,1.87,11.35,9.27,11.32,17.16,0,14.35-4.39,27.79-9.93,40.71-4.12,9.58-8.53,19.44-14.89,27.53-5.68,7.22-5,14.26-5,21.55,6.86-6.23,13.1-13.24,20.64-18.32,6-4.07,13.43-6.61,20.64-8.4,8.22-2,10,2.41,10,7.22-.05,9.07-.23,18.15,0,27.23.19,9.51.69,19,1.2,28.51a10.7,10.7,0,0,0,1.49,5.08c1.47,2.23,3.45,4.19,6.06,1,7.53-9.25,14-18.9,15.46-31.29a21.92,21.92,0,0,1,4.53-10.78c1.81-2.22,6.15-4.53,8.38-3.8,4.41,1.46,11,2,9.61,10.09a79.72,79.72,0,0,0-1,20.15,24.85,24.85,0,0,0,3.93,11.3c.5.82,5.88,1.34,7,.44,14.11-11.28,18.65-21.05,19.86-37.2-8.68-.36-17.57,1-25.51-2.21-13.36-5.48-14.7-15-12.38-20,2.19-4.62,6.47-7,12-7.44,10.94-.79,13.77.11,21.43,6.51,7.46,6.24,11.44,17.43,11.44,17.43s11.68.94,14.66-.73c5.29-16,10.53-35.93,16.64-51.57a202.65,202.65,0,0,1,17.72-35.56c7.09-11.1,14.38-12.7,25.79-8,8.81,3.65,15,8.46,15.55,17.91.36,5.61-.92,11.48-2.33,17-4.57,17.89-14.32,32.63-28.54,44.36-4.73,3.91-9.81,7.41-14.57,11.3a8.09,8.09,0,0,0-2.76,4.29c-3.85,19.4-5.89,38.86-1.38,58.46A30.65,30.65,0,0,0,853.6,549.68ZM997.53,585.3c-13.27,2.88-27.49,11.8-39.28,24.07-6.69,7-9.52,15.4-9.59,24.77S958,653.76,966,653.68c11.51-.11,21-7.64,26-18.44C999.44,619.18,998.35,602.53,997.53,585.3ZM891,400.72c-10.61,4.78-35.39,61.47-33.73,75.54,3.44-2.76,6.66-5.33,9.86-7.91,9.62-7.75,17.33-17.4,21.33-28.8,3.34-9.53,3.91-20.09,5.14-30.26C893.92,406.72,892,403.89,891,400.72Zm48.41,84.12c-4-4.5-8.12-9-14.51-7.41-19.65,4.94-20,30.51-21.68,39.64-.39,2.09-1.56,11.1,1.16,11.1s5.63.63,11.74-4.69C928.9,512.33,937.39,503.67,939.42,484.84ZM677.05,469.32c11.86-16.34,19-34.49,23.51-53.9,1.83-7.86.38-14.19-5.45-21.43C682.36,418.19,679.31,443.68,677.05,469.32Zm126.51,18.6c-1.72-12.69-14.07-21.91-25.27-18.61-2.54.75-6,3.64-6.19,5.74-.18,2.59,2,6.8,4.35,7.86A53.25,53.25,0,0,0,803.56,487.92Zm187.57,23.72c7.53-8.56,13.53-16.83,14.4-27.8C996.28,481.9,987.09,498.74,991.13,511.64Zm-590.37-53c.78.11,18.17-26.12,7.66-34.92l-1.91-.37C400.45,431.87,399.85,448.6,400.76,458.63Z"/><path d="M569.82,427.6c0,6.8-6,8-11.13,9.92s-9-4.83-6.4-10.06c2.89-5.76,9.88-8.74,15.17-6.23C569,422,569.8,424.45,569.82,427.6Z"/><path d="M199.76,265.24c-6.14-25.72-9.29-34.84-16.25-70.34-6.59,2.83-38.36,19.59-46.14,22.93-14.72,6.33-38.21,15.67-52.7,22.43-16,7.48-26,20.44-33.26,35.38-2.46,5.08-4.19,10.46-6.25,15.71l-1.84-.52c2.41-7.33,4.17-14.91,7.36-21.93,7.56-16.66,20.89-28.94,37.25-37.77,18.42-9.95,53.49-18.16,93.29-45.81-1.08-5.76-7.7-39.26,5.52-57.79,15.42-21.61,33.22-17.35,42.14-13.22,15.62,7.24,19.55,23.92,11.87,35.91a110.26,110.26,0,0,1-31.49,32.16s12,69.81,13.21,71.63c17.6-9.06,21.85-11.14,39.07-20.28a29.09,29.09,0,0,0,3.38-2.08s4.24-15,10.31-18.79c7.95-5,19.95-6.39,28.35-1.86,5.45,2.93,11,5.71,17.05,8.85,1.24-3.35,2.44-6.61,3.88-10.49,3.46.52,7.48.63,11.13,1.77,7.83,2.47,9.12,6.48,5.76,16.39-3.25,9.61-7,19.08-9.8,28.8-2.08,7.28-5.64,19.86,3.59,21.42,5.91,1,14-6.51,17.52-10.41,4.74-5.21,10.23-14,10.23-14s.77-6.37,1-8.63c1-9.64,2.2-19.31,2.36-29,.1-5.69,4-6.07,7.77-6.3a9.72,9.72,0,0,1,10.08,11.85c-1.78,8.51-3.9,22-5.43,30.57a165.81,165.81,0,0,1,12.64-18.61c5.31-6.86,11.76-12.32,21.1-14,7.43-1.31,11.07,1.44,11.43,8.7.67,13.48.22,22.93,2,36.31a163.55,163.55,0,0,0,4.18,21.14c11.8-14.39,16.88-29.37,15.83-46.47-.52-8.48.21-17.08,1-25.57.63-6.56,8.66-11.23,14.93-8.43,2.31,1,4.2,5.18,4.25,7.94.1,5-1.32,10-.84,15.38,2.35-2.7,4.77-5.36,7.05-8.12,4.45-5.4,10.68-7.18,17.39-6.52,4.89.48,7.56,4.12,7.74,8.79.39,10.32.51,20.65.9,31,.24,6.29.76,12.57,1.17,19.13,7.59-2.56,13.38-11.75,12.86-17.76-1.21-14.09.75-27.63,9.85-39.47,7-9.07,29.12-10.79,32.81-.57.7,1.94.78,6.83.11,8.58a35.54,35.54,0,0,1-14.34,17.08,70.83,70.83,0,0,1-13.65,6.72c.51,11.6,3.21,15.75,5.55,21.16,2.23,5.18,9.64,6.1,14.77,3.25.72-.4,9.7-5,14.76-12.88-2.62-29.41-6.25-60.91,12.65-103.48,1.3-2.91,2.71-5.81,4.29-8.6,5.19-9.13,9.09-10.69,19.45-7.32,2,.66,4.6,2.57,5.08,4.35,3,10.92,7.31,21.91,7.65,33,.43,14-4.19,27.68-11.66,40.1-6,10-12.39,19.75-18.52,29.67a5.49,5.49,0,0,0-.78,3.41c1.53,11.58,2.64,23.25,5.07,34.66,1,4.89,2.6,11.85,7.48,13.84,2.06.84,9-6,12.72-15.23,5.45-13.52,7.71-27.52,10.6-41.57,1.83-8.9,6.38-17.65,11.37-25.55,6.71-10.62,26.09-10.24,33.48,0,2.33,3.23,4.08,6.83,6.09,10.26l-2,1.25c-1.58-1.57-5.73-8.64-13.12-9.9-6.09-1-8.47,3.43-10.55,9.92-3.62,11.33-9.68,38.79-7,42.09,9.91,0,32.9-37,41.75-58.79,3.55.42,7.33.45,10.85,1.37,6.1,1.6,7.65,4.57,5.9,10.3-4.09,13.47-8.27,26.91-12.35,40.38-.32,1.07,0,2.3,0,4.35,1.92-.86,3.59-1.2,4.62-2.15,7.8-7.19,16.07-13.94,18.43-24.91,1.49-7,4.34-13.69,6.61-20.51,1.93-5.78,6.72-8.62,13.1-7.78,8.43,1.11,10,3.06,8.28,11.07-2.8,13.21-4.83,20-7.29,33.3-.92,4.93-1.38,16.43-1.38,23.12,2.79-2.36,4.67-3.71,6.23-5.33,2.13-2.2,3.94-4.68,6-6.92,10.13-10.9,14.08-17.53,14.08-17.53s5.93-30,7.66-34.67c1.58-4.25,4.87-7.52,10-6,4.58,1.33,8.84,3.78,13,6.12.64.36.11,2.86-.2,4.31-.93,4.34-3.67,14.4-4.51,18,18.26-12,22.61-13.72,32.34-15.32,8.39-1.38,12.19.66,14,8.42,2.75,11.62-.05,22.87-2.47,34.14-1.36,6.36-2.86,12.68-3,19.8C821.53,279,827,274,831.94,268.51c1.21-1.35.85-4.15.79-6.26-.6-21.43,11.95-35.74,29.63-46.61,9-5.57,20.59-.49,24.07,9.29,4.09,11.48-6.3,25.85-19.74,27.28-12.17,1.3-13.38,2.73-12,14.37a26.18,26.18,0,0,0,1.25,5.81c2.94,8.12,6.42,9.16,15.25,7.23,14-3.07,22.12-5.81,30-9.45,28.82-13.32,37.34-13.78,35.16-11.58-1.67,1.69-5.8.91-14.66,5.41-8.47,4.32-10,6-18.39,10.4-10.34,5.34-20.09,11.42-32,13.81-16.55,3.31-27.82-1.22-36.7-16-3.18,4.36-6.22,8.23-8.93,12.31-4.62,6.94-10.49,11.76-19.77,11.79-7.37,0-11.48-3.09-11-10.05,1.23-16.61,3.25-28.66,4.85-45.24.26-2.66,2.08-12.12.42-12.66-12.65,4.41-25.3,12.27-27.12,23.62s-3.42,22.76-4.89,34.18-5.65,15.31-15,13.8c-7.05-1.13-10.66-5.56-9.85-12.83.93-8.26,2.28-16.48,3.66-26.19-5.21,6.47-9.77,11.65-13.73,17.19-5,7-12.11,10.1-20.76,10.79-9.2.73-14.37-4.22-13.81-12.83.36-5.41.07-10.86.07-18-3.81,4.76-6.37,8.08-9.08,11.29-5.42,6.4-16.6,9.55-23.84,6.12a11.67,11.67,0,0,1-5.3-6.49c-1.31-4.06-1.45-8.46-2.29-14l-4.23,4.47c-4.88,5.14-9.38,10.68-14.75,15.33-5.59,4.84-16.86,3.89-23.28-1.59-3.76,8.49-8.43,18.18-16.33,26.19-2.76,2.8-5.28,4.47-12.63,4.57-12.19.16-23.09-37-23.87-39.38a152.4,152.4,0,0,1-14.8,11.09c-20.5,13.78-25.53,7.16-32.31-6.57-.35-.71-.8-1.39-1.27-2.2-3.81,4.54-7.56,9.05-11.37,13.52-3.43,4-7.88,5.21-13,3.61s-7.86-5.33-7.93-10.37c-.2-13.86-.65-22.72-.91-36.57-.06-3.67-.44-12.33-1.12-16.91-2.06,1.36-3.34,1.93-4.24,2.83-9.26,9.24-14.84,19.7-13.11,32.95.9,6.88.78,13.87,1.18,20.8.36,6.43-2.95,10.84-8.42,11.07-5,.22-8.61-3.77-9.12-10a40.24,40.24,0,0,0-.88-4.51c-4.31,5.89-8.1,11.64-12.48,16.95-5.45,6.59-7.46,7.45-16.92,4.36-4.23-1.39-6.24-10.91-7.37-15.15-2.3-8.62-3.38-18.41-4.42-27.23-.86-7.38-1.56-23.41-1.56-23.41s-3.35,1.29-10.94,12.36c-8.69,12.67-13.58,25.25-10.83,40.26a51.18,51.18,0,0,1,.34,13.09c-.37,4.73-2.78,8.61-8.44,8.75-5.06.11-9.28-1.87-9.62-7.33-.49-7.92-.61-15.86-.83-23.8-.08-3,0-6,0-10.17a52.07,52.07,0,0,1-23.43,18.32c-6,2.29-17.77,6.64-23.74,1.68-2.82-2.33-4.43-5.94-7.05-9.62-11.49,8.17-25,12.95-38.2,4.36-13.82-9-10.62-23.2-7.67-36.6-17.31,8.38-23.79,11.69-38.95,19,9.84,40.9,18,56.54,24,78.23,3.38,12.18,9.86,33.8,5.7,61.77-5.25,35.32-23,49.36-34.47,56.77-8.76,5.65-24.87,13.93-64.67,15.59-30.65,1.28-54.48-7.57-69.48-35.8C72.27,412.31,75,389.2,78.23,379c5.83-25,17.25-39.92,31.74-53.11,13.06-11.9,23.57-17.82,38.29-28C160.28,289.62,188,272.59,199.76,265.24Zm25.11,135.25a236.48,236.48,0,0,0-6.35-51.76c-4.53-20.31-6.1-33.85-17.63-76.56-4.17,2.67-21,12.6-25.81,15.89-16,10.95-23.7,15.34-38.66,27.42-11.64,9.39-21.64,21-30.48,32.85-6.16,8.25-18,34.89-13.6,65.62,2.61,18.22,13.52,30.77,28,42,23.35,17,55.9,7,72.76-.76C213.87,445.66,224.26,418.82,224.87,400.49Zm-17.66-229c12-7.89,16.87-13.69,20.67-18.14,5.49-6.34,8.41-13.7,8-22-.25-5.63.71-11.7-9.32-3.34C208,143.45,204.53,150.52,207.21,171.48Zm74.08,85c0,2-.13,4,0,6,.46,6,6.32,12.32,11.46,12.48,6.08.19,15.55-7.33,16.65-12.56,2.35-11.16,6.13-28.3,9.34-39.26-2.26-1.17-2.86-1.27-4.83-2.17-4.25-1.94-6.41-3.34-10.84-1.14C288.31,227.15,281.73,241.76,281.29,256.52ZM596.7,150.46c-8.66,27.56-17.35,54.22-15.93,84.4,2.25-3.19,11.86-10.73,19.9-32.76C607.11,184.42,608.18,161.54,596.7,150.46Zm261,99c4.76-.8,9-.94,12.83-2.27,9.8-3.43,15.59-14.71,11.58-21.53-1.9-3.23-4.39-4.36-7.52-1.61C866.82,230.83,860.78,238.69,857.68,249.43Zm-329.25-7.56c11.77-4.13,21.17-9.09,22.94-25.26C542.72,218.85,531.43,229.72,528.43,241.87Z"/><path d="M731.55,159.06c3.91-1,6.07,4,7.27,6.21s1.91,6.08.68,8c-1.43,2.17-5.52,4.37-7.88,3.92-1.93-.37-4.28-4.67-4.17-7.14C727.61,166.56,727.23,160.17,731.55,159.06Z"/><text class="cls-1" transform="translate(528.34 368.47)">AND</text><line class="cls-2" x1="492.42" y1="351" x2="305.79" y2="351"/><line class="cls-2" x1="1014.86" y1="351" x2="676.61" y2="351"/></svg>